<svg xmlns="http://www.w3.org/2000/svg" viewBox="0 0 24 24" width="64" height="64" fill="none" stroke="currentColor" stroke-width="1.8" stroke-linecap="round" stroke-linejoin="round">
  <!-- Car body -->
  <path d="M3 14.5h18M3 14.5l2.2-4.1A3 3 0 0 1 8.8 8h6.4a3 3 0 0 1 2.7 1.8L20.9 14.5" />
  <!-- Wheels -->
  <circle cx="7.5" cy="16.5" r="1.8"/>
  <circle cx="16.5" cy="16.5" r="1.8"/>
  <!-- Gear (component) -->
  <g transform="translate(2,3)">
    <circle cx="5" cy="5" r="1.7"/>
    <path d="M5 1.2v1.4M5 7.4v1.4M1.2 5h1.4M7.4 5h1.4M2.6 2.6l1 1M6.4 6.4l1 1M2.6 7.4l1-1M6.4 3.6l1-1"/>
  </g>
</svg>